<svg width="64" height="64" viewBox="0 0 64 64" fill="none" xmlns="http://www.w3.org/2000/svg">
  <defs>
    <linearGradient id="secBg2" x1="0" y1="0" x2="64" y2="64">
      <stop offset="0%" stop-color="#ecfdf5"/>
      <stop offset="100%" stop-color="#d1fae5"/>
    </linearGradient>
    <linearGradient id="shieldGrad" x1="20" y1="10" x2="44" y2="54">
      <stop offset="0%" stop-color="#059669"/>
      <stop offset="50%" stop-color="#10b981"/>
      <stop offset="100%" stop-color="#06b6d4"/>
    </linearGradient>
    <filter id="shieldGlow">
      <feDropShadow dx="0" dy="2" stdDeviation="3" flood-color="#10b981" flood-opacity="0.25"/>
    </filter>
  </defs>

  <rect width="64" height="64" rx="18" fill="url(#secBg2)"/>

  <!-- Escudo com forma moderna -->
  <path d="M32 10L48 16V30C48 40 41 48 32 52C23 48 16 40 16 30V16L32 10Z" 
    fill="white" stroke="url(#shieldGrad)" stroke-width="2.5" stroke-linejoin="round" filter="url(#shieldGlow)"/>

  <!-- Gradiente interno do escudo -->
  <path d="M32 14L44 18.5V30C44 38 38.5 44 32 47C25.5 44 20 38 20 30V18.5L32 14Z" 
    fill="url(#shieldGrad)" opacity="0.08"/>

  <!-- Lock icon dentro do escudo -->
  <rect x="27" y="28" width="10" height="8" rx="2" stroke="url(#shieldGrad)" stroke-width="2"/>
  <path d="M29 28V25C29 22.8 30.3 21 32 21C33.7 21 35 22.8 35 25V28" stroke="url(#shieldGrad)" stroke-width="2" stroke-linecap="round"/>
  <circle cx="32" cy="32" r="1.5" fill="#059669"/>

  <!-- Pulso de proteção -->
  <path d="M32 10L48 16V30C48 40 41 48 32 52C23 48 16 40 16 30V16L32 10Z" 
    fill="none" stroke="#10b981" stroke-width="0.8" stroke-dasharray="4 3" opacity="0.4"/>

  <!-- Partículas de segurança -->
  <circle cx="12" cy="20" r="1.5" fill="#10b981" opacity="0.4"/>
  <circle cx="52" cy="14" r="1.5" fill="#06b6d4" opacity="0.4"/>
  <circle cx="50" cy="48" r="1.2" fill="#10b981" opacity="0.3"/>
  <path d="M10 44L11 42L12 44L11 46Z" fill="#059669" opacity="0.4"/>
</svg>
